# xmcd
#
# Track frame offsets:
# 150
# 14385
# 30947
# 48656
# 66070
# 82666
# 97448
# 112937
# 130490
# 145929
# 165096
# 182730
#
# Disc length: 2640 seconds
#
# Revision: 0
# Processed by: cddbd v1.5.1PL2 Copyright (c) Steve Scherf et al.
# Submitted via: Audion 3.0.2 (http://www.panic.com/audion/)
#
DISCID=950a4e0c
DTITLE=Melissa Gibson - In Your Corner
DYEAR=1900
DGENRE=
TTITLE0=Untrouble Your Mind
TTITLE1=Rolling Away
TTITLE2=My Own
TTITLE3=Shadows of My Limits
TTITLE4=Raining In LA
TTITLE5=On The Rise
TTITLE6=Over Your Shoulder
TTITLE7=Trembling Arms
TTITLE8=Vibrant Blue
TTITLE9=How The Falcon Flies
TTITLE10=The Water and The Earth
TTITLE11=What They Meant
EXTD=
EXTT0=
EXTT1=
EXTT2=
EXTT3=
EXTT4=
EXTT5=
EXTT6=
EXTT7=
EXTT8=
EXTT9=
EXTT10=
EXTT11=
PLAYORDER=
